<svg preserveAspectRatio="xMidYMid meet" data-bbox="1.25 -0.993 77.675 82.384" viewBox="0 0 80 82.03" xmlns="http://www.w3.org/2000/svg" data-type="ugc" role="presentation" aria-hidden="true" aria-label="">
    <g>
        <path d="M33.64 51.96c.51.52.88 1.25.83 1.99s-.61 1.47-1.32 1.51c.11.3.23.6.42.85s.48.44.78.43c.55-.02.89-.64 1.06-1.19.31-1.02.41-2.19-.11-3.11-.75-1.34-2.43-1.69-3.79-1.52.8.08 1.55.45 2.13 1.03Z" fill="#53909f" stroke="#53909f" stroke-miterlimit="10" stroke-width=".25"></path>
        <path d="M37.19 48.64c-.44-.62-1.1-1.11-1.84-1.13.09 0 1.04 3.27 1.16 3.59.36.94.64 1.88 1.11 2.77.58 1.11 1.5 2.29 1.88 3.48-1.19-2.78-.49-6.12-2.31-8.72Z" fill="#53909f" stroke="#53909f" stroke-miterlimit="10" stroke-width=".25"></path>
        <path d="M39.02 47.52c.69 2.74.79 5.64.27 8.42.28-1.48-.13-3.43-.4-4.89-.3-1.64-.76-3.24-1.38-4.78-.29-.72-.82-1.46-1.02-2.2s-.02-.89.56-.4c1.06.9 1.63 2.51 1.97 3.86Z" fill="#53909f" stroke="#53909f" stroke-miterlimit="10" stroke-width=".25"></path>
        <path d="M37.05 41.64c-.13.13-.29.27-.45.22-.14-.04-.22-.22-.21-.38s.1-.3.19-.42c.23-.33 1.43-1.65 1.9-1.31.43.31-1.18 1.64-1.42 1.89Z" fill="#53909f" stroke="#53909f" stroke-miterlimit="10" stroke-width=".25"></path>
        <path d="M31.97 42.36c.17-.15.3-1.15.47-1.43.28-.45.68-.83 1.11-1.13.77-.53 1.81-.86 2.74-.85-1.62.8-2.95 2.22-4.32 3.41Z" fill="#53909f" stroke="#53909f" stroke-miterlimit="10" stroke-width=".25"></path>
        <path d="M38.87 38.06c-2.16.44-4.39.46-6.55.06-.47-.09-.95-.2-1.33-.5s-.64-.82-.5-1.3c1.12-.34 2.31-.42 3.46-.24l-1.6-2.1c-.36-.47-.71-1.19-.3-1.61.4-.42 1.08-.05 1.48.37.59.62 1.07 1.35 1.7 1.93s1.47 1 2.29.82c-1.47-1.17-2.37-3.09-2.36-5.03l3.08.54c-.4-2.19.3-4.51 1.53-6.33l.3 3.72s-.01.03-.03.02c-.31-.08-.63.16-.77.47s-.13.68-.11 1.03l.21 4.46c-.39-1.21-1.31-2.22-2.44-2.69l2.01 5.36-5.29-3.26c-.02.53.18 1.05.5 1.45.16.2.34.37.55.51.15.1.33.17.33.39 0 .3-.56.32-.8.39l-2.27.65c2.24.26 4.68.64 6.92.9Z" fill="#53909f" stroke="#53909f" stroke-miterlimit="10" stroke-width=".25"></path>
        <path d="M33.67 29.79a.47.47 0 0 1 .43-.61c.54-.02 1.07-.19 1.52-.49.17-.31.12-.72-.08-1s-.54-.45-.88-.46c-.77-.03-1.45.71-1.55 1.52-.06.49.13 1.9.75 1.89-.05-.28-.12-.56-.2-.84Z" fill="#53909f"></path>
        <path d="M39.25 43.01c.09-.19.11-.25.3-.35s.45-.12.63 0c.1.07.16.18.2.3.05.16.04.34-.04.49s-.25.27-.43.28c-.2.01-.4-.1-.51-.26s-.14-.35-.14-.54" fill="#53909f"></path>
        <path d="M39.38 44.98c.07-.15.12-.18.27-.26s.35-.09.49 0c.08.06.13.14.15.23.04.13.03.27-.03.39s-.2.21-.34.22c-.16 0-.31-.08-.4-.2s-.11-.27-.11-.42" fill="#53909f"></path>
        <path d="M39.5 46.68c.06-.11.07-.17.18-.23s.27-.07.37 0c.06.04.1.11.12.18.03.1.02.2-.03.29s-.15.16-.26.17c-.12 0-.24-.06-.3-.15s-.09-.21-.08-.32" fill="#53909f"></path>
        <path d="M39.5 48.08c.06-.11.07-.18.18-.24s.27-.07.37 0c.06.04.1.11.12.18.03.1.02.2-.03.29s-.15.16-.26.17c-.12 0-.24-.06-.3-.15s-.09-.21-.08-.32" fill="#53909f"></path>
        <path d="M39.05 40.72c.13-.27.17-.32.42-.47s.61-.17.85.01c.14.11.22.27.26.43.06.24.06.5-.06.71s-.34.38-.58.4c-.27.02-.54-.11-.69-.33s-.19-.54-.18-.81" fill="#53909f"></path>
        <path d="M46.09 51.96c-.51.52-.88 1.25-.83 1.99s.61 1.47 1.32 1.51c-.11.3-.23.6-.42.85s-.48.44-.78.43c-.55-.02-.89-.64-1.06-1.19-.31-1.02-.41-2.19.11-3.11.75-1.34 2.43-1.69 3.79-1.52-.8.08-1.55.45-2.13 1.03Z" fill="#53909f" stroke="#53909f" stroke-miterlimit="10" stroke-width=".25"></path>
        <path d="M42.54 48.64c.44-.62 1.1-1.11 1.84-1.13-.09 0-1.04 3.27-1.16 3.59-.36.94-.64 1.88-1.11 2.77-.58 1.11-1.5 2.29-1.88 3.48 1.19-2.78.49-6.12 2.31-8.72Z" fill="#53909f" stroke="#53909f" stroke-miterlimit="10" stroke-width=".25"></path>
        <path d="M40.71 47.52c-.69 2.74-.79 5.64-.27 8.42-.28-1.48.13-3.43.4-4.89.3-1.64.76-3.24 1.38-4.78.29-.72.82-1.46 1.02-2.2s.02-.89-.56-.4c-1.06.9-1.63 2.51-1.97 3.86Z" fill="#53909f" stroke="#53909f" stroke-miterlimit="10" stroke-width=".25"></path>
        <path d="M42.69 41.64c.13.13.29.27.45.22.14-.04.22-.22.21-.38s-.1-.3-.19-.42c-.23-.33-1.43-1.65-1.9-1.31-.43.31 1.18 1.64 1.42 1.89Z" fill="#53909f" stroke="#53909f" stroke-miterlimit="10" stroke-width=".25"></path>
        <path d="M47.76 42.36c-.17-.15-.3-1.15-.47-1.43-.28-.45-.68-.83-1.11-1.13-.77-.53-1.81-.86-2.74-.85 1.62.8 2.95 2.22 4.32 3.41Z" fill="#53909f" stroke="#53909f" stroke-miterlimit="10" stroke-width=".25"></path>
        <path d="M40.86 38.06c2.16.44 4.39.46 6.55.06.47-.09.95-.2 1.33-.5s.64-.82.5-1.3a7.796 7.796 0 0 0-3.46-.24l1.6-2.1c.36-.47.71-1.19.3-1.61-.4-.42-1.08-.05-1.48.37-.59.62-1.07 1.35-1.7 1.93s-1.47 1-2.29.82c1.47-1.17 2.37-3.09 2.36-5.03l-3.08.54c.4-2.19-.3-4.51-1.53-6.33l-.3 3.72s.01.03.03.02c.31-.08.63.16.77.47s.13.68.11 1.03l-.21 4.46c.39-1.21 1.31-2.22 2.44-2.69l-2.01 5.36 5.29-3.26c.02.53-.18 1.05-.5 1.45-.16.2-.34.37-.55.51-.15.1-.33.17-.33.39 0 .3.56.32.8.39l2.27.65c-2.24.26-4.68.64-6.92.9Z" fill="#53909f" stroke="#53909f" stroke-miterlimit="10" stroke-width=".25"></path>
        <path d="M46.06 29.79a.47.47 0 0 0-.43-.61c-.54-.02-1.07-.19-1.52-.49-.17-.31-.12-.72.08-1s.54-.45.88-.46c.77-.03 1.45.71 1.55 1.52.06.49-.13 1.9-.75 1.89.05-.28.12-.56.2-.84Z" fill="#53909f"></path>
        <path d="M40.49 43.01c-.09-.19-.11-.25-.3-.35s-.45-.12-.63 0c-.1.07-.16.18-.2.3-.05.16-.04.34.04.49s.25.27.43.28c.2.01.4-.1.51-.26s.14-.35.14-.54" fill="#53909f"></path>
        <path d="M40.35 44.98c-.07-.15-.12-.18-.27-.26s-.35-.09-.49 0a.39.39 0 0 0-.15.23c-.04.13-.03.27.03.39s.2.21.34.22c.16 0 .31-.08.4-.2s.11-.27.11-.42" fill="#53909f"></path>
        <path d="M40.23 46.68c-.06-.11-.07-.17-.18-.23s-.27-.07-.37 0c-.06.04-.1.11-.12.18-.03.1-.02.2.03.29s.15.16.26.17c.12 0 .24-.06.3-.15s.09-.21.08-.32" fill="#53909f"></path>
        <path d="M40.23 48.08c-.06-.11-.07-.18-.18-.24s-.27-.07-.37 0c-.06.04-.1.11-.12.18-.03.1-.02.2.03.29s.15.16.26.17c.12 0 .24-.06.3-.15s.09-.21.08-.32" fill="#53909f"></path>
        <path d="M40.69 40.72c-.13-.27-.17-.32-.42-.47s-.61-.17-.85.01c-.14.11-.22.27-.26.43-.06.24-.06.5.06.71s.34.38.58.4c.27.02.54-.11.69-.33s.19-.54.18-.81" fill="#53909f"></path>
        <path d="M11.29 39.04H4.52c-.32 0-.78.1-.96.4s.15.43.39.43h6.77c.32 0 .78-.1.96-.4s-.15-.43-.39-.43Z" fill="#53909f"></path>
        <path d="M76.4 39.04h-6.77c-.32 0-.78.1-.96.4s.15.43.39.43h6.77c.32 0 .78-.1.96-.4s-.15-.43-.39-.43Z" fill="#53909f"></path>
        <text transform="rotate(61.35 -41.776 30.101) scale(.99 1)" font-family="Bodoni-Italic,Bodoni" font-size="18.14" font-style="italic" fill="#53909f" stroke="#53909f" stroke-miterlimit="10" stroke-width=".25"><tspan y="0" x="0">m</tspan></text>
        <text transform="matrix(.77446 .6167 -.62292 .78228 13.38 66.36)" font-family="Bodoni-Italic,Bodoni" font-size="18.14" font-style="italic" fill="#53909f" stroke="#53909f" stroke-miterlimit="10" stroke-width=".25"><tspan y="0" x="0">a</tspan></text>
        <text transform="rotate(19.77 -199.567 102.597) scale(.99 1)" font-family="Bodoni-Italic,Bodoni" font-size="18.14" font-style="italic" fill="#53909f" stroke="#53909f" stroke-miterlimit="10" stroke-width=".25"><tspan y="0" x="0">d</tspan></text>
        <text transform="rotate(2.06 -2129.923 1002.238) scale(.99 1)" font-family="Bodoni-Italic,Bodoni" font-size="18.14" font-style="italic" fill="#53909f" stroke="#53909f" stroke-miterlimit="10" stroke-width=".25"><tspan y="0" x="0">e</tspan></text>
        <text transform="rotate(-9.99 463.825 -211.888) scale(.99 1)" font-family="Bodoni-Italic,Bodoni" font-size="18.14" font-style="italic" fill="#53909f" stroke="#53909f" stroke-miterlimit="10" stroke-width=".25"><tspan y="0" x="0">l</tspan></text>
        <text transform="matrix(.9056 -.39998 .40402 .91475 50.99 75.88)" font-family="Bodoni-Italic,Bodoni" font-size="18.14" font-style="italic" fill="#53909f" stroke="#53909f" stroke-miterlimit="10" stroke-width=".25"><tspan y="0" x="0">e</tspan></text>
        <text transform="matrix(.80396 -.5777 .58354 .81208 59.12 71.99)" font-family="Bodoni-Italic,Bodoni" font-size="18.14" font-style="italic" fill="#53909f" stroke="#53909f" stroke-miterlimit="10" stroke-width=".25"><tspan y="0" x="0">i</tspan></text>
        <text transform="matrix(.62945 -.76413 .77185 .6358 64.84 67.96)" font-family="Bodoni-Italic,Bodoni" font-size="18.14" font-style="italic" fill="#53909f" stroke="#53909f" stroke-miterlimit="10" stroke-width=".25"><tspan y="0" x="0">n</tspan></text>
        <text transform="rotate(-68.9 78.338 -23.884) scale(.99 1)" font-family="Bodoni-Italic,Bodoni" font-size="18.14" font-style="italic" fill="#53909f" stroke="#53909f" stroke-miterlimit="10" stroke-width=".25"><tspan y="0" x="0">e</tspan></text>
        <text transform="rotate(-44.4 41.046 -9.276) scale(.99 1)" font-family="Bodoni-Italic,Bodoni" font-size="18.14" font-style="italic" fill="#53909f" stroke="#53909f" stroke-miterlimit="10" stroke-width=".25"><tspan y="0" x="0">d</tspan></text>
        <text transform="matrix(.91997 -.36573 .36942 .92926 25.65 18.89)" font-family="Bodoni-Italic,Bodoni" font-size="18.14" font-style="italic" fill="#53909f" stroke="#53909f" stroke-miterlimit="10" stroke-width=".25"><tspan y="0" x="0">a</tspan></text>
        <text transform="matrix(.99 .00397 -.00401 1 34.93 15.21)" font-family="Bodoni-Italic,Bodoni" font-size="18.14" font-style="italic" fill="#53909f" stroke="#53909f" stroke-miterlimit="10" stroke-width=".25"><tspan y="0" x="0">n</tspan></text>
        <text transform="rotate(18.21 -26.33 149.787) scale(.99 1)" font-family="Bodoni-Italic,Bodoni" font-size="18.14" font-style="italic" fill="#53909f" stroke="#53909f" stroke-miterlimit="10" stroke-width=".25"><tspan y="0" x="0">i</tspan></text>
        <text transform="matrix(.81432 .56302 -.5687 .82254 51.18 17.53)" font-family="Bodoni-Italic,Bodoni" font-size="18.14" font-style="italic" fill="#53909f" stroke="#53909f" stroke-miterlimit="10" stroke-width=".25"><tspan y="0" x="0">e</tspan></text>
        <text transform="rotate(49.21 4.529 74.15) scale(.99 1)" font-family="Bodoni-Italic,Bodoni" font-size="18.14" font-style="italic" fill="#53909f" stroke="#53909f" stroke-miterlimit="10" stroke-width=".25"><tspan y="0" x="0">l</tspan></text>
        <path fill="none" d="M77.99 42.46c0 20.882-16.928 37.81-37.81 37.81S2.37 63.342 2.37 42.46 19.298 4.65 40.18 4.65s37.81 16.928 37.81 37.81z"></path>
    </g>
</svg>