<?xml version="1.0" encoding="UTF-8"?>
<svg id="Calque_2" data-name="Calque 2" xmlns="http://www.w3.org/2000/svg" version="1.1" viewBox="0 0 68.9 67.6">
  <defs>
    <style>
      .cls-1 {
        stroke-width: 0px;
      }

      .cls-1, .cls-2 {
        fill: #53909f;
      }

      .cls-2 {
        stroke: #53909f;
        stroke-miterlimit: 10;
        stroke-width: .2px;
      }
    </style>
  </defs>
  <g id="Calque_1-2" data-name="Calque 1-2">
    <g>
      <path class="cls-2" d="M28.2,45.5c.6.6,1,1.4.9,2.2s-.7,1.6-1.5,1.7c.1.3.2.7.5.9s.5.5.9.5c.6,0,1-.7,1.2-1.3.4-1.1.5-2.4-.1-3.4-.8-1.5-2.7-1.9-4.2-1.7.9,0,1.7.5,2.4,1.1h0Z"/>
      <path class="cls-2" d="M32.1,41.8c-.5-.7-1.2-1.2-2-1.2.1,0,1.1,3.6,1.3,4,.4,1,.7,2.1,1.2,3.1.6,1.2,1.7,2.5,2.1,3.8-1.3-3.1-.5-6.8-2.6-9.6h0Z"/>
      <path class="cls-2" d="M34.2,40.6c.8,3,.9,6.2.3,9.3.3-1.6-.2-3.8-.4-5.4-.3-1.8-.8-3.6-1.5-5.3-.3-.8-.9-1.6-1.1-2.4s0-1,.6-.4c1.2,1,1.8,2.8,2.2,4.3Z"/>
      <path class="cls-2" d="M32,34.1c-.1.1-.3.3-.5.2-.2,0-.2-.2-.2-.4s.1-.3.2-.5c.3-.4,1.6-1.8,2.1-1.5.5.3-1.3,1.8-1.6,2.1h0Z"/>
      <path class="cls-2" d="M26.4,34.9c.2-.2.3-1.3.5-1.6.3-.5.8-.9,1.2-1.2.9-.6,2-1,3-.9-1.8.9-3.3,2.4-4.8,3.8Z"/>
      <path class="cls-2" d="M34,30.2c-2.4.5-4.9.5-7.2,0-.5-.1-1-.2-1.5-.5s-.7-.9-.6-1.4c1.2-.4,2.5-.5,3.8-.3l-1.8-2.3c-.4-.5-.8-1.3-.3-1.8.5-.5,1.2,0,1.6.4.6.7,1.2,1.5,1.9,2.1s1.6,1.1,2.5.9c-1.6-1.3-2.6-3.4-2.6-5.6l3.4.6h0c-.4-2.4.3-5,1.7-7l.3,4.1s0,0,0,0c-.3,0-.7.2-.8.5s-.1.8-.1,1.1l.2,4.9h0c-.4-1.3-1.5-2.5-2.7-3l2.2,5.9-5.9-3.6c0,.6.2,1.2.5,1.6.2.2.4.4.6.6.2.1.4.2.4.4s-.6.4-.9.4l-2.5.7c2.5.3,5.2.7,7.6,1h0Z"/>
      <path class="cls-1" d="M28.2,21c-.1-.3.1-.7.5-.7.6,0,1.2-.2,1.7-.5.2-.3.1-.8,0-1.1s-.6-.5-1-.5c-.9,0-1.6.8-1.7,1.7,0,.5.1,2.1.8,2.1,0-.3-.1-.6-.2-.9Z"/>
      <path class="cls-1" d="M34.4,35.6c0-.2.1-.3.3-.4s.5-.1.7,0c.1,0,.2.2.2.3,0,.2,0,.4,0,.5s-.3.3-.5.3c-.2,0-.4-.1-.6-.3s-.2-.4-.2-.6"/>
      <path class="cls-1" d="M34.5,37.8c0-.2.1-.2.3-.3s.4,0,.5,0c0,0,.1.2.2.3,0,.1,0,.3,0,.4s-.2.2-.4.2c-.2,0-.3,0-.4-.2s-.1-.3-.1-.5"/>
      <path class="cls-1" d="M34.7,39.7c0-.1,0-.2.2-.2s.3,0,.4,0c0,0,.1.1.1.2,0,.1,0,.2,0,.3s-.2.2-.3.2-.3,0-.3-.2,0-.2,0-.3"/>
      <path class="cls-1" d="M34.7,41.2c0-.1,0-.2.2-.3s.3,0,.4,0c0,0,.1.1.1.2,0,.1,0,.2,0,.3s-.2.2-.3.2-.3,0-.3-.2,0-.2,0-.3"/>
      <path class="cls-1" d="M34.2,33.1c.1-.3.2-.3.5-.5s.7-.2.9,0c.2.1.2.3.3.5,0,.3,0,.5,0,.8s-.4.4-.7.4c-.3,0-.6-.1-.8-.4s-.2-.6-.2-.9"/>
      <path class="cls-2" d="M42,45.5c-.6.6-1,1.4-.9,2.2s.7,1.6,1.5,1.7c-.1.3-.2.7-.5.9s-.5.5-.9.5c-.6,0-1-.7-1.2-1.3-.3-1.1-.5-2.4.1-3.4.8-1.5,2.7-1.9,4.2-1.7-.9,0-1.7.5-2.3,1.1h0Z"/>
      <path class="cls-2" d="M38,41.8c.5-.7,1.2-1.2,2-1.2,0,0-1.2,3.6-1.3,4-.4,1-.7,2.1-1.2,3.1-.6,1.2-1.7,2.5-2.1,3.8,1.3-3.1.5-6.8,2.6-9.6h0Z"/>
      <path class="cls-2" d="M36,40.6c-.8,3-.9,6.2-.3,9.3-.3-1.6.2-3.8.4-5.4.3-1.8.8-3.6,1.5-5.3.3-.8.9-1.6,1.1-2.4s0-1-.6-.4c-1.2,1-1.8,2.8-2.2,4.3Z"/>
      <path class="cls-2" d="M38.2,34.1c.1.1.3.3.5.2.2,0,.2-.2.2-.4s-.1-.3-.2-.5c-.3-.4-1.6-1.8-2.1-1.5-.5.3,1.3,1.8,1.6,2.1h0Z"/>
      <path class="cls-2" d="M43.8,34.9c-.2-.2-.3-1.3-.5-1.6-.3-.5-.8-.9-1.2-1.2-.9-.6-2-1-3-.9,1.8.9,3.3,2.4,4.8,3.8Z"/>
      <path class="cls-2" d="M36.2,30.2c2.4.5,4.8.5,7.2,0,.5-.1,1-.2,1.5-.5s.7-.9.6-1.4c-1.2-.4-2.5-.5-3.8-.3l1.8-2.3c.4-.5.8-1.3.3-1.8-.5-.5-1.2,0-1.6.4-.7.7-1.2,1.5-1.9,2.1s-1.6,1.1-2.5.9c1.6-1.3,2.6-3.4,2.6-5.6l-3.4.6h0c.4-2.4-.3-5-1.7-7l-.3,4.1s0,0,0,0c.3,0,.7.2.8.5s.1.8.1,1.1l-.2,4.9h0c.4-1.3,1.5-2.5,2.7-3l-2.2,5.9,5.8-3.6c0,.6-.2,1.2-.5,1.6-.2.2-.4.4-.6.6-.2.1-.4.2-.4.4s.6.4.9.4l2.5.7c-2.5.3-5.2.7-7.6,1h0Z"/>
      <path class="cls-1" d="M41.9,21c0-.3-.1-.7-.5-.7-.6,0-1.2-.2-1.7-.5-.2-.3-.1-.8,0-1.1s.6-.5,1-.5c.8,0,1.6.8,1.7,1.7,0,.5-.1,2.1-.8,2.1,0-.3.1-.6.2-.9Z"/>
      <path class="cls-1" d="M35.8,35.6c0-.2-.1-.3-.3-.4s-.5-.1-.7,0c-.1,0-.2.2-.2.3,0,.2,0,.4,0,.5s.3.3.5.3c.2,0,.4-.1.6-.3s.2-.4.2-.6"/>
      <path class="cls-1" d="M35.6,37.8c0-.2-.1-.2-.3-.3s-.4,0-.5,0c0,0-.1.2-.2.3,0,.1,0,.3,0,.4s.2.2.4.2c.2,0,.3,0,.4-.2s.1-.3.1-.5"/>
      <path class="cls-1" d="M35.5,39.7c0-.1,0-.2-.2-.2s-.3,0-.4,0c0,0-.1.1-.1.2,0,.1,0,.2,0,.3s.2.2.3.2.3,0,.3-.2,0-.2,0-.3"/>
      <path class="cls-1" d="M35.5,41.2c0-.1,0-.2-.2-.3s-.3,0-.4,0c0,0-.1.1-.1.2,0,.1,0,.2,0,.3s.2.2.3.2.3,0,.3-.2,0-.2,0-.3"/>
      <path class="cls-1" d="M36,33.1c-.1-.3-.2-.3-.5-.5s-.7-.2-.9,0c-.2.1-.2.3-.3.5,0,.3,0,.5,0,.8s.4.4.7.4c.3,0,.6-.1.8-.4s.2-.6.2-.9"/>
      <path class="cls-1" d="M7.4,30.1H1c-.3,0-.8.1-1,.4s.2.4.4.4h6.4c.3,0,.8-.1,1-.4s-.2-.4-.4-.4h0Z"/>
      <path class="cls-1" d="M68.5,30.1h-6.4c-.3,0-.8.1-1,.4s.2.4.4.4h6.4c.3,0,.8-.1,1-.4s-.2-.4-.4-.4h0Z"/>
      <g>
        <path class="cls-1" d="M8.1,44.7h0c1,0,2.2.3,2.9,1.2.7.9.5,1.5-.5,2.2,1,0,2.3.3,2.9,1.2.3.5.6,1.4,0,1.8-.4.3-.9.5-1.4.7-.5.2-2.9,1.2-3.2,1.4-.2.1-.1.3,0,.5.3.5,1.9.2,2.4.1v.4c-1.2.1-2.7.5-3.6-.7-.3-.4-.4-1.1,0-1.5.4-.3,1.3-.7,1.9-.9.4-.1,2.5-1,2.7-1.2.2-.2.3-.5.1-.7-.2-.3-1-.5-1.3-.5-.7-.1-1.6,0-2.3.3l-3.2,1.4-1-1.4,2.8-1.2c.4-.2,2.3-1,2.5-1.1.3-.2.3-.5,0-.8-.8-1-3.1-.5-4.1,0l-2.7,1.2-1-1.4,5.9-2.7-.8-1.1.4-.2.9,1.2c.3.4.7.8,1,1.2l-1.4.7h0Z"/>
        <path class="cls-1" d="M19.5,55.9l1.3,1-3.6,2.8c-.5.4-.9.6-1,.9-.1.2-.2.4,0,.5.4.3,1.9-.3,2.4-.5l.2.3c-1,.6-2.6,1.2-3.6.4-.6-.4-.6-1.2-.2-1.7-.9.3-1.7.2-2.5-.4-1.1-.8-1.1-2.2,0-3.6,1.2-1.5,4.1-2.2,5.7-1,.7.5.8,1.5.3,2.2h0s1.1-.8,1.1-.8h0ZM13,59c.2.2.6.2.9.3,1.2.2,3.4-1.5,4.1-2.4.4-.5.7-1.5,0-2-.6-.5-1.1-.5-3.3,1.1-2.7,2-2.2,2.5-1.6,2.9Z"/>
        <path class="cls-1" d="M30,55.8l-1.4-.5.2-.4,3.1,1-5.8,9.3c0,.2,0,.4.1.5.5.2,1.8-.8,2.1-1.2l.2.2c-.8.9-2,1.9-3.3,1.4-.8-.3-.9-.8-.7-1.6-.8.5-1.6.8-2.5.5-1.5-.5-2.1-1.9-1.5-3.5.6-1.6,2.6-3.1,4.3-3,.4,0,.5,0,.9.2.8.3,1.3.9,1.3,1.8l3-4.7h0ZM22.3,64.6c1,.4,1.9-.2,2.6-1,.6-.7,1.4-1.8,1.7-2.7.3-.8,0-1.5-.8-1.8-1-.4-1.9.8-2.5,1.5-.5.7-1.3,1.9-1.6,2.7-.2.6.1,1.1.6,1.2Z"/>
        <path class="cls-1" d="M36.7,65.6c-.8,1.4-2,1.9-3.5,1.9-1.4,0-2.7-1.3-2.7-2.8,0-2.2,2.1-4.3,4.3-4.2,1.1,0,2.3.6,2.2,2,0,.9-.6,1.3-1.3,1.7-.5.2-1,.3-2,.3h-1.2c-.2.4-.3.9-.3,1.4,0,.8.6,1.2,1.3,1.2,1.2,0,2.2-.7,2.8-1.6l.3.2h0ZM33.2,63.9c1.4,0,2.3-.4,2.4-2,0-.6-.2-1.1-.9-1.1-1.5,0-1.7,2-2.1,3.1h.6Z"/>
        <path class="cls-1" d="M39.3,55.7l-1.3.2v-.4s3.1-.7,3.1-.7l-.4,10.2c0,1,0,1.2.4,1.2.7-.1,1.2-1.7,1.3-2.3h.4c-.2,1.3-.9,2.9-2.3,3.1-1,.2-1.6-.2-1.5-1.8l.4-9.5h0Z"/>
        <path class="cls-1" d="M50.4,61.6c-.2,1.6-.9,2.6-2.4,3.2-1.3.6-3,0-3.7-1.4-.9-2,0-4.8,2.1-5.7,1-.5,2.3-.4,2.9.8.3.8,0,1.5-.5,2.1-.3.4-.7.7-1.7,1.1l-1.1.5c0,.5.2,1,.4,1.5.3.7,1.1.8,1.8.5,1.1-.5,1.7-1.5,1.8-2.7h.4ZM46.5,61.6c1.2-.5,1.9-1.4,1.3-2.8-.2-.6-.7-.9-1.3-.7-1.3.6-.7,2.6-.6,3.7l.6-.2Z"/>
        <path class="cls-1" d="M49.9,52.9c-.4.3-1,.2-1.3-.2-.3-.4-.2-1.1.2-1.3.4-.3,1-.2,1.4.2.3.4.2,1.1-.2,1.4ZM49.3,56.9l-.2-.4,1.3-.9c.4-.3.8-.7,1.2-1l1.9,4.7c.1.3.3.8.4,1,.2.2.3.2.5,0,.6-.4.3-1.8.2-2.5h.4c.1.6.2,1.4.1,2.1,0,.6-.4,1.2-1,1.5-.6.3-1.2.4-1.7-.3,0-.1-.3-.5-.5-.9l-1.7-4.2-1.1.8h0Z"/>
        <path class="cls-1" d="M56.1,51.7h0c-.3-1.1-.3-2.4.5-3.3.5-.6,1.3-.8,2-.3.2.2.4.4.6.7l2.3,3.1c.2.2.4.2.5,0,.3-.4-.2-2-.5-2.4l.3-.2c.5.9.9,2.1.5,3-.2.4-.3.5-.5.8-.3.4-1,.6-1.4.2-.3-.3-1.3-1.7-1.6-2.1-.2-.3-1.2-1.7-1.3-1.8-.3-.2-.6,0-.8.2-.7.8,0,2.7.5,3.5l2.2,2.9-1.1,1.3-3.9-5.2-.8,1-.2-.4,1-1.2c.3-.4.6-.8.9-1.2l1,1.4h0Z"/>
        <path class="cls-1" d="M65.8,42.6c1,1.2,1.1,2.5.6,3.9-.5,1.3-2.2,2.1-3.6,1.5-2-.8-3.3-3.4-2.5-5.5.4-1,1.4-1.9,2.6-1.4.8.3,1,1,1.2,1.8,0,.5,0,1-.4,2l-.5,1.2c.4.3.8.6,1.3.8.7.3,1.4-.2,1.6-.8.4-1.1.1-2.2-.6-3.2l.3-.3h0ZM63,45.3c.5-1.3.4-2.3-1-2.9-.6-.2-1.1-.2-1.4.4-.5,1.4,1.3,2.3,2.2,3l.2-.6Z"/>
      </g>
      <g>
        <path class="cls-1" d="M12.2,5.1l-1.1,1.1-.2-.4,2.2-2.3,5.8,9.3c.1.1.3.2.5,0,.4-.4,0-1.9-.2-2.4h.3c.5,1,.8,2.6-.2,3.5-.6.6-1.1.4-1.7,0,.1,1,0,1.8-.7,2.5-1.1,1.1-2.6,1-3.8-.1-1.2-1.2-1.6-3.7-.8-5.2.2-.3.3-.5.6-.7.6-.6,1.4-.8,2.2-.4l-2.9-4.7h0ZM16.8,15.9c.8-.8.7-1.8.3-2.8-.4-.8-1-2-1.6-2.7-.6-.6-1.4-.6-2,0-.8.8-.1,2.1.3,2.9.4.8,1.1,2,1.7,2.6.4.4,1,.4,1.4,0h0Z"/>
        <path class="cls-1" d="M25.5,4l1.5-.6.6,4.5c0,.6.1,1.1.2,1.3,0,.2.2.3.5.2.5-.2.7-1.8.7-2.3h.4c0,1.2-.3,2.8-1.5,3.3-.7.2-1.3,0-1.6-.7-.2.9-.7,1.6-1.6,1.9-1.3.5-2.5-.2-3.1-1.8-.7-1.8.2-4.7,2-5.4.8-.3,1.6,0,2,.8h0s-.1-1.3,0-1.3ZM24.7,11.1c.3-.1.5-.4.7-.6.8-.9.5-3.7,0-4.7-.2-.7-.9-1.3-1.6-1-.7.3-1,.7-.7,3.4.4,3.3,1,3.1,1.6,2.9h0Z"/>
        <path class="cls-1" d="M34,4h0c.7-.9,1.7-1.7,2.9-1.7.8,0,1.5.5,1.5,1.4,0,.3,0,.6-.1.9l-.9,3.7c0,.2.1.4.4.4.5,0,1.4-1.4,1.5-1.9l.3.2c-.4.9-1,2.1-2,2.3-.4.1-.6.1-1,0-.5,0-1.1-.4-1.1-1,0-.4.5-2.1.6-2.6,0-.3.6-2,.6-2.2,0-.4-.4-.5-.7-.5-1,0-2.1,1.7-2.3,2.6l-.8,3.5h-1.7s1.5-6.3,1.5-6.3h-1.3v-.4h1.7c.5,0,1,0,1.5,0l-.5,1.7h0Z"/>
        <path class="cls-1" d="M42.8,3.8l.2-.4,1.5.5c.5.2,1,.3,1.5.4l-2.6,4.3c-.2.3-.5.7-.5.9,0,.2,0,.4.2.5.7.2,1.7-.9,2.1-1.3l.3.2c-.5.5-1,1-1.7,1.4-.5.3-1.2.4-1.8.1-.6-.3-1-.8-.8-1.5,0-.1.2-.5.5-.9l2.3-3.8-1.3-.4h0ZM46.3,2c-.5-.2-.8-.7-.6-1.2.2-.5.8-.8,1.2-.6s.8.7.6,1.2c-.2.5-.7.8-1.2.6Z"/>
        <path class="cls-1" d="M52,13.7c-1.4.7-2.7.6-4-.3-1.2-.8-1.6-2.6-.7-3.8,1.2-1.8,4.1-2.4,5.9-1.2.9.6,1.6,1.8.8,2.9-.5.7-1.2.8-2,.7-.5,0-1-.2-1.8-.8l-1-.7c-.4.3-.7.6-1,1.1-.5.7-.2,1.4.5,1.8,1,.7,2.2.6,3.2.1l.2.3h0ZM50,10.4c1.1.8,2.2.9,3-.4.3-.5.4-1.1-.1-1.4-1.2-.8-2.5.8-3.4,1.4l.5.4h0Z"/>
        <path class="cls-1" d="M61.5,9.2l-1-.9.4-.2,2.4,2-8.3,5.8c-.8.6-1,.8-.7,1,.5.5,2,0,2.6-.4l.2.3c-1.1.6-2.8,1.1-3.8,0-.7-.7-.8-1.4.5-2.3l7.7-5.5h0Z"/>
      </g>
    </g>
  </g>
</svg>