<?xml version="1.0" encoding="UTF-8"?>
<svg id="Calque_2" data-name="Calque 2" xmlns="http://www.w3.org/2000/svg" viewBox="0 0 68.91 67.55">
  <defs>
    <style>
      .cls-1 {
        stroke-width: 0px;
      }

      .cls-1, .cls-2 {
        fill: #53909f;
      }

      .cls-2 {
        stroke: #53909f;
        stroke-miterlimit: 10;
        stroke-width: .25px;
      }
    </style>
  </defs>
  <g id="Calque_1-2" data-name="Calque 1">
    <g>
      <path class="cls-2" d="M28.2,45.51c.56.58.97,1.38.91,2.2s-.68,1.62-1.46,1.67c.12.33.25.66.46.94s.53.48.86.47c.61-.02.98-.7,1.17-1.31.35-1.12.45-2.42-.12-3.43-.82-1.48-2.69-1.87-4.18-1.68.88.08,1.72.49,2.35,1.14Z"/>
      <path class="cls-2" d="M32.12,41.85c-.48-.69-1.22-1.23-2.03-1.24.1,0,1.15,3.61,1.29,3.97.4,1.04.71,2.08,1.23,3.07.64,1.22,1.66,2.53,2.08,3.85-1.31-3.07-.54-6.76-2.56-9.63Z"/>
      <path class="cls-2" d="M34.15,40.61c.77,3.02.87,6.23.3,9.3.3-1.64-.15-3.8-.44-5.41-.33-1.81-.84-3.58-1.53-5.28-.32-.79-.9-1.62-1.12-2.43s-.02-.98.61-.44c1.17,1,1.8,2.78,2.18,4.26Z"/>
      <path class="cls-2" d="M31.97,34.11c-.14.14-.32.29-.5.24-.16-.05-.25-.24-.23-.42s.11-.33.2-.47c.26-.37,1.58-1.82,2.1-1.45.48.34-1.3,1.82-1.57,2.09Z"/>
      <path class="cls-2" d="M26.36,34.91c.18-.16.33-1.27.52-1.58.31-.5.75-.92,1.23-1.25.86-.58,2-.95,3.02-.94-1.79.88-3.26,2.45-4.77,3.77Z"/>
      <path class="cls-2" d="M33.98,30.16c-2.38.49-4.85.51-7.24.06-.52-.1-1.04-.22-1.47-.55s-.71-.91-.56-1.44c1.24-.37,2.55-.46,3.83-.27l-1.76-2.32c-.4-.52-.79-1.31-.34-1.78.45-.47,1.2-.06,1.64.41.65.69,1.19,1.5,1.88,2.13s1.62,1.1,2.53.9c-1.62-1.29-2.62-3.41-2.61-5.55l3.4.6s0,0,0,0c-.44-2.42.33-4.98,1.69-6.99l.33,4.11s-.01.03-.03.03c-.34-.09-.7.18-.85.51s-.14.75-.12,1.14l.24,4.93s0,0,0,0c-.43-1.34-1.45-2.46-2.7-2.97l2.22,5.93-5.85-3.6c-.02.58.2,1.16.55,1.6.17.22.38.41.61.56.17.11.37.19.37.43,0,.33-.62.36-.89.43l-2.51.72c2.48.29,5.17.71,7.64.99Z"/>
      <path class="cls-1" d="M28.24,21.02c-.1-.34.14-.66.48-.67.59-.02,1.18-.21,1.68-.54.19-.34.14-.79-.09-1.11s-.59-.5-.97-.51c-.85-.03-1.6.78-1.71,1.67-.07.55.14,2.1.83,2.09-.05-.31-.13-.62-.22-.93Z"/>
      <path class="cls-1" d="M34.4,35.62c.1-.2.12-.27.33-.39s.5-.13.69,0c.11.08.18.2.22.33.05.18.05.38-.05.55s-.28.29-.48.31c-.22.01-.44-.11-.56-.29s-.16-.39-.16-.59"/>
      <path class="cls-1" d="M34.55,37.8c.08-.16.13-.2.29-.29s.39-.1.54,0c.09.06.14.16.17.26.04.14.04.3-.04.43s-.22.23-.38.24c-.18.01-.35-.09-.44-.22s-.12-.3-.12-.46"/>
      <path class="cls-1" d="M34.68,39.68c.06-.12.08-.18.2-.25s.3-.08.41,0c.07.05.11.12.13.2.03.11.03.23-.03.33s-.16.18-.29.18c-.13,0-.26-.07-.33-.17s-.09-.23-.09-.35"/>
      <path class="cls-1" d="M34.68,41.22c.06-.12.08-.2.2-.27s.3-.08.41,0c.07.05.11.12.13.2.03.11.03.23-.03.33s-.16.18-.29.18c-.13,0-.26-.07-.33-.17s-.09-.23-.09-.35"/>
      <path class="cls-1" d="M34.18,33.09c.14-.29.18-.35.47-.52s.67-.19.93.01c.15.12.24.29.29.48.07.26.06.55-.06.79s-.37.42-.65.44c-.3.02-.6-.12-.76-.37s-.21-.6-.2-.9"/>
      <path class="cls-2" d="M41.96,45.51c-.56.58-.97,1.38-.91,2.2s.68,1.62,1.46,1.67c-.12.33-.25.66-.46.94s-.53.48-.86.47c-.61-.02-.98-.7-1.17-1.31-.35-1.12-.45-2.42.12-3.43.82-1.48,2.69-1.87,4.18-1.68-.88.08-1.72.49-2.35,1.14Z"/>
      <path class="cls-2" d="M38.04,41.85c.48-.69,1.22-1.23,2.03-1.24-.1,0-1.15,3.61-1.29,3.97-.4,1.04-.71,2.08-1.23,3.07-.64,1.22-1.66,2.53-2.08,3.85,1.31-3.07.54-6.76,2.56-9.63Z"/>
      <path class="cls-2" d="M36.02,40.61c-.77,3.02-.87,6.23-.3,9.3-.3-1.64.15-3.8.44-5.41.33-1.81.84-3.58,1.53-5.28.32-.79.9-1.62,1.12-2.43s.02-.98-.61-.44c-1.17,1-1.8,2.78-2.18,4.26Z"/>
      <path class="cls-2" d="M38.2,34.11c.14.14.32.29.5.24.16-.05.25-.24.23-.42s-.11-.33-.2-.47c-.26-.37-1.58-1.82-2.1-1.45-.48.34,1.3,1.82,1.57,2.09Z"/>
      <path class="cls-2" d="M43.8,34.91c-.18-.16-.33-1.27-.52-1.58-.31-.5-.75-.92-1.23-1.25-.86-.58-2-.95-3.02-.94,1.79.88,3.26,2.45,4.77,3.77Z"/>
      <path class="cls-2" d="M36.18,30.16c2.38.49,4.85.51,7.24.06.52-.1,1.04-.22,1.47-.55s.71-.91.56-1.44c-1.24-.37-2.55-.46-3.83-.27l1.76-2.32c.4-.52.79-1.31.34-1.78-.45-.47-1.2-.06-1.64.41-.65.69-1.19,1.5-1.88,2.13s-1.62,1.1-2.53.9c1.62-1.29,2.62-3.41,2.61-5.55l-3.4.6s0,0,0,0c.44-2.42-.33-4.98-1.69-6.99l-.33,4.11s.01.03.03.03c.34-.09.7.18.85.51s.14.75.12,1.14l-.24,4.93s0,0,0,0c.43-1.34,1.45-2.46,2.7-2.97l-2.22,5.93,5.85-3.6c.02.58-.2,1.16-.55,1.6-.17.22-.38.41-.61.56-.17.11-.37.19-.37.43,0,.33.62.36.89.43l2.51.72c-2.48.29-5.17.71-7.64.99Z"/>
      <path class="cls-1" d="M41.93,21.02c.1-.34-.14-.66-.48-.67-.59-.02-1.18-.21-1.68-.54-.19-.34-.14-.79.09-1.11s.59-.5.97-.51c.85-.03,1.6.78,1.71,1.67.07.55-.14,2.1-.83,2.09.05-.31.13-.62.22-.93Z"/>
      <path class="cls-1" d="M35.77,35.62c-.1-.2-.12-.27-.33-.39s-.5-.13-.69,0c-.11.08-.18.2-.22.33-.05.18-.05.38.05.55s.28.29.48.31c.22.01.44-.11.56-.29s.16-.39.16-.59"/>
      <path class="cls-1" d="M35.62,37.8c-.08-.16-.13-.2-.29-.29s-.39-.1-.54,0c-.09.06-.14.16-.17.26-.04.14-.04.3.04.43s.22.23.38.24c.18.01.35-.09.44-.22s.12-.3.12-.46"/>
      <path class="cls-1" d="M35.48,39.68c-.06-.12-.08-.18-.2-.25s-.3-.08-.41,0c-.07.05-.11.12-.13.2-.03.11-.03.23.03.33s.16.18.29.18c.13,0,.26-.07.33-.17s.09-.23.09-.35"/>
      <path class="cls-1" d="M35.48,41.22c-.06-.12-.08-.2-.2-.27s-.3-.08-.41,0c-.07.05-.11.12-.13.2-.03.11-.03.23.03.33s.16.18.29.18c.13,0,.26-.07.33-.17s.09-.23.09-.35"/>
      <path class="cls-1" d="M35.99,33.09c-.14-.29-.18-.35-.47-.52s-.67-.19-.93.01c-.15.12-.24.29-.29.48-.07.26-.06.55.06.79s.37.42.65.44c.3.02.6-.12.76-.37s.21-.6.2-.9"/>
      <path class="cls-1" d="M7.36,30.13H1.01c-.32,0-.78.1-.96.4s.15.43.39.43h6.36c.32,0,.78-.1.96-.4s-.15-.43-.39-.43h0Z"/>
      <path class="cls-1" d="M68.47,30.13h-6.36c-.32,0-.78.1-.96.4s.15.43.39.43c1.86,0,3.71,0,5.57,0h.79c.32,0,.78-.1.96-.4s-.15-.43-.39-.43h0Z"/>
      <g>
        <path class="cls-2" d="M8.48,44.75v.05c1.01.16,2.16.57,2.7,1.52.54.97.28,1.56-.73,2.11,1,.19,2.24.57,2.77,1.51.28.5.39,1.42-.23,1.77-.45.25-.93.39-1.44.54-.49.14-3.07.83-3.33.97-.18.1-.15.32-.07.46.28.5,1.87.41,2.37.4l.03.39c-1.32-.05-2.79.15-3.53-1.17-.27-.48-.29-1.17.26-1.48.47-.27,1.42-.53,1.96-.68.38-.1,2.63-.71,2.81-.81.27-.15.35-.45.2-.73-.18-.32-.92-.58-1.24-.67-.69-.19-1.6-.16-2.3.04l-3.35.96-.83-1.48,2.91-.87c.44-.13,2.36-.67,2.62-.82.33-.18.32-.47.16-.76-.63-1.11-3-.89-4.05-.57l-2.84.89-.84-1.49,6.16-1.95-.65-1.16.43-.11.76,1.35c.26.45.56.86.82,1.31l-1.51.48Z"/>
        <path class="cls-2" d="M19.54,55.94l1.28,1-3.58,2.8c-.49.38-.87.64-1.03.86-.14.17-.16.37.02.52.42.33,1.9-.31,2.35-.54l.19.3c-.99.63-2.59,1.15-3.61.36-.56-.43-.61-1.15-.24-1.74-.9.31-1.72.21-2.48-.38-1.09-.85-1.13-2.21-.02-3.63,1.19-1.52,4.09-2.2,5.66-.98.69.54.75,1.45.34,2.19l.03.02,1.09-.77ZM13,59c.24.19.56.22.85.28,1.22.24,3.38-1.48,4.08-2.37.43-.55.66-1.47.05-1.95-.6-.47-1.13-.52-3.33,1.14-2.66,2.01-2.16,2.51-1.65,2.9Z"/>
        <path class="cls-2" d="M29.98,55.76l-1.41-.5.25-.36,3.1.96-5.82,9.33c-.09.15-.05.4.14.46.54.19,1.75-.81,2.08-1.22l.24.25c-.8.91-2.04,1.88-3.3,1.44-.79-.28-.89-.82-.69-1.6-.83.54-1.57.8-2.53.46-1.52-.54-2.07-1.9-1.53-3.45.57-1.61,2.62-3.09,4.29-2.97.37.02.55.05.9.17.82.29,1.28.88,1.33,1.75l2.95-4.74ZM22.32,64.64c1.03.36,1.91-.2,2.59-.97.58-.7,1.37-1.81,1.67-2.66.29-.82-.02-1.51-.83-1.79-1.03-.36-1.93.78-2.48,1.51-.54.71-1.28,1.86-1.57,2.68-.2.56.11,1.05.62,1.23Z"/>
        <path class="cls-2" d="M36.69,65.56c-.84,1.37-1.95,1.91-3.51,1.86-1.44-.05-2.73-1.35-2.68-2.85.07-2.18,2.11-4.27,4.31-4.2,1.13.04,2.28.64,2.24,1.95-.03.87-.62,1.34-1.32,1.71-.46.24-.97.33-2,.29l-1.24-.04c-.2.45-.27.95-.28,1.47-.03.8.62,1.23,1.35,1.25,1.19.04,2.16-.65,2.78-1.63l.35.18ZM33.21,63.88c1.36.04,2.32-.43,2.37-1.95.02-.61-.23-1.11-.87-1.14-1.46-.05-1.72,2.04-2.12,3.06l.62.02Z"/>
        <path class="cls-2" d="M39.27,55.69l-1.32.23.04-.44,3.06-.66-.44,10.16c-.04,1.01.01,1.24.41,1.17.7-.12,1.19-1.66,1.27-2.27h.41c-.22,1.28-.86,2.86-2.27,3.11-.96.17-1.6-.18-1.53-1.82l.37-9.49Z"/>
        <path class="cls-2" d="M50.41,61.62c-.16,1.6-.93,2.56-2.36,3.19-1.32.58-3.05-.04-3.65-1.41-.88-2,.06-4.77,2.08-5.65,1.03-.45,2.33-.41,2.86.79.35.79.02,1.48-.45,2.11-.31.42-.73.71-1.67,1.12l-1.14.5c.02.5.17.97.38,1.45.32.73,1.08.84,1.76.55,1.09-.48,1.67-1.51,1.8-2.67h.39ZM46.55,61.6c1.25-.55,1.9-1.39,1.3-2.78-.25-.56-.69-.91-1.28-.65-1.34.59-.67,2.58-.59,3.68l.57-.25Z"/>
        <path class="cls-2" d="M49.94,52.94c-.42.3-1.05.18-1.35-.25-.29-.42-.18-1.06.22-1.35.4-.28,1.05-.2,1.36.23.31.44.2,1.07-.23,1.37ZM49.28,56.87l-.15-.42,1.26-.89c.43-.3.8-.65,1.22-.95l1.92,4.65c.14.34.3.83.41.98.15.21.33.23.52.09.59-.42.28-1.85.22-2.48l.38-.1c.12.73.2,1.45.12,2.17-.07.59-.43,1.2-.95,1.49-.6.32-1.21.38-1.67-.26-.09-.12-.31-.49-.48-.91l-1.72-4.15-1.08.77Z"/>
        <path class="cls-2" d="M56.13,52.67h.05c-.26-1.12-.28-2.37.5-3.3.52-.62,1.31-.85,1.99-.28.25.21.4.4.59.65l2.27,3.07c.15.22.36.15.52-.04.3-.36-.23-2-.47-2.37l.33-.16c.46.89.92,2.11.47,3.03-.18.37-.28.49-.54.8-.33.4-.99.59-1.43.22-.31-.26-1.29-1.72-1.6-2.14-.19-.27-1.19-1.73-1.34-1.85-.3-.25-.64-.06-.85.19-.66.79-.05,2.73.53,3.47l2.19,2.87-1.11,1.33-3.93-5.15-.85,1.02-.25-.36,1-1.18c.34-.4.61-.83.94-1.23l1,1.41Z"/>
        <path class="cls-2" d="M65.76,42.62c1,1.25,1.13,2.48.55,3.93-.54,1.34-2.2,2.11-3.59,1.55-2.02-.81-3.3-3.44-2.48-5.49.42-1.05,1.38-1.93,2.6-1.44.81.32,1.05,1.04,1.16,1.82.07.52-.02,1.02-.41,1.97l-.46,1.16c.36.34.8.57,1.29.77.74.3,1.37-.16,1.64-.85.44-1.11.13-2.25-.58-3.17l.29-.26ZM62.99,45.32c.51-1.26.38-2.33-1.02-2.89-.57-.23-1.13-.16-1.37.43-.54,1.36,1.33,2.31,2.16,3.04l.23-.58Z"/>
      </g>
      <g>
        <path class="cls-2" d="M12.25,6.12l-1.07,1.05-.21-.39,2.24-2.35,5.79,9.34c.1.15.33.22.48.08.41-.4.05-1.92-.17-2.41l.32-.1c.46,1.12.79,2.66-.17,3.6-.6.59-1.13.43-1.73-.09.12.98.03,1.76-.71,2.48-1.15,1.13-2.63,1.02-3.77-.15-1.19-1.22-1.61-3.71-.76-5.16.18-.32.29-.47.55-.73.62-.61,1.36-.75,2.16-.42l-2.94-4.74ZM16.83,16.91c.78-.76.67-1.79.28-2.75-.37-.83-1.02-2.03-1.65-2.67-.61-.62-1.36-.65-1.97-.05-.78.76-.15,2.08.26,2.89.4.8,1.1,1.97,1.71,2.59.42.43.99.36,1.38-.01Z"/>
        <path class="cls-2" d="M25.45,3.97l1.52-.59.57,4.51c.07.61.11,1.07.21,1.33.08.21.24.33.46.24.5-.19.71-1.79.73-2.29h.36c.04,1.16-.33,2.8-1.54,3.27-.66.25-1.3-.06-1.62-.69-.2.93-.7,1.59-1.59,1.93-1.28.5-2.47-.16-3.13-1.84-.7-1.79.2-4.65,2.05-5.36.82-.32,1.62.1,2.05.83h.03s-.1-1.34-.1-1.34ZM24.73,11.15c.28-.11.47-.37.67-.59.83-.92.46-3.67.05-4.71-.25-.65-.93-1.32-1.65-1.04-.71.27-1.02.71-.72,3.44.36,3.31,1.05,3.14,1.65,2.91Z"/>
        <path class="cls-2" d="M34.04,4.01l.03.03c.7-.91,1.65-1.72,2.86-1.71.81,0,1.49.47,1.48,1.36,0,.32-.06.56-.13.87l-.93,3.7c-.07.25.11.38.37.38.47,0,1.39-1.45,1.53-1.88l.33.16c-.4.92-1.05,2.05-2.04,2.3-.4.1-.56.1-.96.09-.52,0-1.09-.38-1.08-.96,0-.41.51-2.09.63-2.6.09-.32.58-2.02.58-2.21,0-.39-.36-.53-.68-.53-1.03,0-2.14,1.7-2.35,2.62l-.83,3.52-1.73-.02,1.47-6.31h-1.33s.12-.44.12-.44h1.55c.52.02,1.03-.04,1.55-.04l-.45,1.67Z"/>
        <path class="cls-2" d="M42.76,3.82l.25-.37,1.47.49c.49.16,1,.26,1.49.42l-2.62,4.3c-.19.31-.49.73-.55.91-.08.24,0,.4.23.47.69.23,1.65-.87,2.13-1.29l.31.25c-.51.53-1.05,1.02-1.68,1.38-.52.29-1.22.37-1.76.12-.61-.29-1.03-.75-.78-1.5.05-.15.21-.54.45-.93l2.32-3.84-1.26-.42ZM46.31,2.02c-.5-.16-.77-.74-.6-1.24.16-.48.75-.77,1.22-.62s.79.73.62,1.23c-.17.52-.74.79-1.24.63Z"/>
        <path class="cls-2" d="M51.99,13.69c-1.44.7-2.67.55-3.96-.33-1.19-.82-1.56-2.61-.71-3.84,1.24-1.79,4.08-2.45,5.9-1.2.93.64,1.58,1.77.83,2.85-.49.71-1.24.8-2.03.73-.52-.05-.99-.25-1.83-.83l-1.02-.71c-.41.27-.74.65-1.04,1.08-.46.66-.15,1.37.46,1.79.98.68,2.16.62,3.22.13l.19.34ZM49.98,10.4c1.12.77,2.18.89,3.04-.36.35-.5.41-1.06-.12-1.43-1.2-.83-2.54.79-3.44,1.43l.51.35Z"/>
        <path class="cls-2" d="M61.86,10.63l-.88-1.02.4-.19,2.14,2.28-8.94,4.84c-.89.48-1.06.65-.79.96.46.53,2.04.17,2.6-.07l.2.36c-1.2.46-2.89.72-3.82-.36-.64-.74-.67-1.47.77-2.25l8.33-4.56Z"/>
      </g>
    </g>
  </g>
</svg>