<svg preserveAspectRatio="xMidYMid meet" data-bbox="0.005 0.01 55.62 14.87" viewBox="0 0 55.63 14.89" xmlns="http://www.w3.org/2000/svg" data-type="ugc" role="presentation" aria-hidden="true" aria-label="">
    <g>
        <path d="M42.33 3.06c.97-.72 1.74-1.82 1.76-3.02 0 .14-5.1 1.71-5.61 1.91-1.47.6-2.94 1.06-4.33 1.83-1.73.95-3.57 2.47-5.44 3.09 4.34-1.95 9.56-.8 13.62-3.81Z" stroke="#53909f" stroke-miterlimit="10" stroke-width=".25" fill="#53909f"></path>
        <path d="M44.08 6.07a29.353 29.353 0 0 1-13.15.44c2.31.45 5.37-.22 7.65-.66 2.56-.49 5.06-1.25 7.46-2.27 1.12-.47 2.29-1.35 3.44-1.67s1.39-.04.62.91c-1.41 1.75-3.93 2.69-6.02 3.25Z" stroke="#53909f" stroke-miterlimit="10" stroke-width=".25" fill="#53909f"></path>
        <path d="M51.13 6.44c.29.15.39.18.55.49s.19.74-.01 1.03c-.11.17-.29.27-.47.32-.26.08-.54.07-.77-.07s-.42-.41-.43-.71c-.02-.33.16-.66.4-.84s.55-.24.84-.23" fill="#53909f"></path>
        <path d="M48.05 6.66c.23.12.28.19.41.44s.15.58 0 .81c-.09.13-.23.21-.37.25-.2.06-.42.05-.61-.05s-.33-.32-.34-.56c-.02-.26.12-.51.32-.66s.43-.19.66-.18" fill="#53909f"></path>
        <path d="M45.4 6.86c.17.09.26.12.36.3s.11.44 0 .61a.49.49 0 0 1-.28.19c-.15.05-.32.04-.46-.04s-.25-.24-.26-.42c-.01-.2.09-.39.24-.5s.33-.14.5-.14" fill="#53909f"></path>
        <path d="M43.22 6.86c.17.09.28.12.38.3s.11.44 0 .61a.49.49 0 0 1-.28.19c-.15.05-.32.04-.46-.04s-.25-.24-.26-.42c-.01-.2.09-.39.24-.5s.33-.14.5-.14" fill="#53909f"></path>
        <path d="M54.71 6.11c.42.21.5.27.73.7s.27 1-.02 1.39c-.16.22-.42.36-.67.44-.37.11-.77.09-1.11-.09s-.6-.55-.63-.96c-.03-.45.17-.9.52-1.14s.85-.31 1.27-.3" fill="#53909f"></path>
        <path d="M42.33 11.86c.97.72 1.74 1.82 1.76 3.02 0-.14-5.1-1.71-5.61-1.91-1.47-.6-2.94-1.06-4.33-1.83-1.73-.95-3.57-2.47-5.44-3.09 4.34 1.95 9.56.8 13.62 3.81Z" stroke="#53909f" stroke-miterlimit="10" stroke-width=".25" fill="#53909f"></path>
        <path d="M44.08 8.85a29.353 29.353 0 0 0-13.15-.44c2.31-.45 5.37.22 7.65.66 2.56.49 5.06 1.25 7.46 2.27 1.12.47 2.29 1.35 3.44 1.67s1.39.04.62-.91c-1.41-1.75-3.93-2.69-6.02-3.25Z" stroke="#53909f" stroke-miterlimit="10" stroke-width=".25" fill="#53909f"></path>
        <path d="M51.13 8.48c.29-.15.39-.18.55-.49s.19-.74-.01-1.03a.803.803 0 0 0-.47-.32c-.26-.08-.54-.07-.77.07s-.42.41-.43.71c-.02.33.16.66.4.84s.55.24.84.23" fill="#53909f"></path>
        <path d="M48.05 8.26c.23-.12.28-.19.41-.44s.15-.58 0-.81a.667.667 0 0 0-.37-.25c-.2-.06-.42-.05-.61.05s-.33.32-.34.56c-.02.26.12.51.32.66s.43.19.66.18" fill="#53909f"></path>
        <path d="M45.4 8.05c.17-.09.26-.12.36-.3s.11-.44 0-.61a.49.49 0 0 0-.28-.19c-.15-.05-.32-.04-.46.04s-.25.24-.26.42c-.01.2.09.39.24.5s.33.14.5.14" fill="#53909f"></path>
        <path d="M43.22 8.05c.17-.09.28-.12.38-.3s.11-.44 0-.61a.49.49 0 0 0-.28-.19c-.15-.05-.32-.04-.46.04s-.25.24-.26.42c-.01.2.09.39.24.5s.33.14.5.14" fill="#53909f"></path>
        <path d="M54.71 8.81c.42-.21.5-.27.73-.7s.27-1-.02-1.39c-.16-.22-.42-.36-.67-.44-.37-.11-.77-.09-1.11.09s-.6.55-.63.96c-.03.45.17.9.52 1.14s.85.31 1.27.3" fill="#53909f"></path>
        <path d="M13.3 11.83c-.97.72-1.74 1.82-1.76 3.02 0-.14 5.1-1.71 5.61-1.91 1.47-.6 2.94-1.06 4.33-1.83 1.73-.95 3.57-2.47 5.44-3.09-4.34 1.95-9.56.8-13.62 3.81Z" stroke="#53909f" stroke-miterlimit="10" stroke-width=".25" fill="#53909f"></path>
        <path d="M11.55 8.82c4.27-1.14 8.81-1.29 13.15-.44-2.31-.45-5.37.22-7.65.66-2.56.49-5.06 1.25-7.46 2.27-1.12.47-2.29 1.35-3.44 1.67s-1.39.04-.62-.91c1.41-1.75 3.93-2.69 6.02-3.25Z" stroke="#53909f" stroke-miterlimit="10" stroke-width=".25" fill="#53909f"></path>
        <path d="M4.5 8.45c-.29-.15-.39-.18-.55-.49s-.19-.74.01-1.03c.11-.17.29-.27.47-.32.26-.08.54-.07.77.07s.42.41.43.71c.02.33-.16.66-.4.84s-.55.24-.84.23" fill="#53909f"></path>
        <path d="M7.58 8.23c-.23-.12-.28-.19-.41-.44s-.15-.58 0-.81c.09-.13.23-.21.37-.25.2-.06.42-.05.61.05s.33.32.34.56c.02.26-.12.51-.32.66s-.43.19-.66.18" fill="#53909f"></path>
        <path d="M10.24 8.03c-.17-.09-.26-.12-.36-.3s-.11-.44 0-.61c.07-.1.17-.16.28-.19.15-.05.32-.04.46.04s.25.24.26.42c.01.2-.09.39-.24.5s-.33.14-.5.14" fill="#53909f"></path>
        <path d="M12.41 8.03c-.17-.09-.28-.12-.38-.3s-.11-.44 0-.61c.07-.1.17-.16.28-.19.15-.05.32-.04.46.04s.25.24.26.42c.01.2-.09.39-.24.5s-.33.14-.5.14" fill="#53909f"></path>
        <path d="M.92 8.78c-.42-.21-.5-.27-.73-.7s-.27-1 .02-1.39c.16-.22.42-.36.67-.44.37-.11.77-.09 1.11.09s.6.55.63.96c.03.45-.17.9-.52 1.14s-.85.31-1.27.3" fill="#53909f"></path>
        <path d="M13.3 3.03c-.97-.72-1.74-1.82-1.76-3.02 0 .14 5.1 1.71 5.61 1.91 1.47.6 2.94 1.06 4.33 1.83 1.73.95 3.57 2.47 5.44 3.09-4.34-1.95-9.56-.8-13.62-3.81Z" stroke="#53909f" stroke-miterlimit="10" stroke-width=".25" fill="#53909f"></path>
        <path d="M11.55 6.04c4.27 1.14 8.81 1.29 13.15.44-2.31.45-5.37-.22-7.65-.66-2.56-.49-5.06-1.25-7.46-2.27C8.47 3.08 7.3 2.2 6.15 1.88s-1.39-.04-.62.91c1.41 1.75 3.93 2.69 6.02 3.25Z" stroke="#53909f" stroke-miterlimit="10" stroke-width=".25" fill="#53909f"></path>
        <path d="M4.5 6.41c-.29.15-.39.18-.55.49s-.19.74.01 1.03c.11.17.29.27.47.32.26.08.54.07.77-.07s.42-.41.43-.71c.02-.33-.16-.66-.4-.84s-.55-.24-.84-.23" fill="#53909f"></path>
        <path d="M7.58 6.63c-.23.12-.28.19-.41.44s-.15.58 0 .81c.09.13.23.21.37.25.2.06.42.05.61-.05s.33-.32.34-.56c.02-.26-.12-.51-.32-.66s-.43-.19-.66-.18" fill="#53909f"></path>
        <path d="M10.24 6.83c-.17.09-.26.12-.36.3s-.11.44 0 .61c.07.1.17.16.28.19.15.05.32.04.46-.04s.25-.24.26-.42c.01-.2-.09-.39-.24-.5s-.33-.14-.5-.14" fill="#53909f"></path>
        <path d="M12.41 6.83c-.17.09-.28.12-.38.3s-.11.44 0 .61c.07.1.17.16.28.19.15.05.32.04.46-.04s.25-.24.26-.42c.01-.2-.09-.39-.24-.5s-.33-.14-.5-.14" fill="#53909f"></path>
        <path d="M.92 6.08c-.42.21-.5.27-.73.7s-.27 1 .02 1.39c.16.22.42.36.67.44.37.11.77.09 1.11-.09s.6-.55.63-.96c.03-.45-.17-.9-.52-1.14s-.85-.31-1.27-.3" fill="#53909f"></path>
    </g>
</svg>